# xmcd CD database file
#
# Track frame offsets:
#	150
#	21578
#	37666
#	60159
#	79711
#	105151
#	117389
#	137645
#	168066
#	191350
#	209694
#	230704
#	251549
#	263642
#
# Disc length: 3790 seconds
#
# Revision: 0
# Processed by: cddbd v1.5.1PL2 Copyright (c) Steve Scherf et al.
# Submitted via: CDex 1.51
#
DISCID=ae0ecc0e
DTITLE=Piet Noordijk Quartet - Piet Plays Bird!
DYEAR=1997
DGENRE=Jazz
TTITLE0=Everything Happens to me
TTITLE1=Dancing in the Dark
TTITLE2=Summertime
TTITLE3=Laura
TTITLE4=Autumn in New York
TTITLE5=What Is This Thing Called Love
TTITLE6=I Didn't Know What Time it Was
TTITLE7=I'm In The Mood For Love
TTITLE8=Star Eyes
TTITLE9=April In Paris
TTITLE10=They Can't Take That Away From Me
TTITLE11=Easy To Love
TTITLE12=Just Friends
TTITLE13=Piet Plays Bird!
EXTD=YEAR: 1997
EXTT0=
EXTT1=
EXTT2=
EXTT3=
EXTT4=
EXTT5=
EXTT6=
EXTT7=
EXTT8=
EXTT9=
EXTT10=
EXTT11=
EXTT12=
EXTT13=
PLAYORDER=
